<?xml version="1.0" standalone="no"?><!DOCTYPE svg PUBLIC "-//W3C//DTD SVG 1.1//EN" "http://www.w3.org/Graphics/SVG/1.1/DTD/svg11.dtd"><svg width="200" height="200" viewBox="0 0 200 200" version="1.1" xmlns="http://www.w3.org/2000/svg" xmlns:xlink="http://www.w3.org/1999/xlink"><defs><style type="text/css"><![CDATA[
@font-face { font-family: ifont; src: url("//at.alicdn.com/t/font_1442373896_4754455.eot?#iefix") format("embedded-opentype"), url("//at.alicdn.com/t/font_1442373896_4754455.woff") format("woff"), url("//at.alicdn.com/t/font_1442373896_4754455.ttf") format("truetype"), url("//at.alicdn.com/t/font_1442373896_4754455.svg#ifont") format("svg"); }

]]></style></defs><g class="transform-group"><g transform="scale(0.1953125, 0.1953125)"><path d="M938.057629 467.919039c10.712993 0 20.753673 2.350534 30.124088 7.03523s17.412578 11.048637 24.111141 19.075451c6.683213 8.026814 11.704576 17.396205 15.062044 28.109198 3.342118 10.712993 5.02034 22.097274 5.02034 34.152844 0 13.399171-1.679245 25.438369-5.02034 36.151361-3.357468 10.712993-8.378831 20.098757-15.062044 28.124548-6.699586 8.042163-14.741749 14.406105-24.111141 19.0908s-19.411095 7.018857-30.124088 7.018857c-5.372358 0-11.063987-0.991584-17.076934-3.006474-6.028297-2.01489-11.719926-4.349051-17.076934-7.03523 0 38.83754-10.377348 74.653257-31.131021 107.463524s-49.214888 60.59917-85.36625 83.35136c-34.824133 22.768563-75.661214 40.516786-122.524544 53.243645-46.879704 12.727882-97.086176 19.075451-150.650115 19.075451-53.56394 0-103.785761-6.347568-150.650115-19.075451-46.879704-12.727882-87.716784-30.475082-122.524544-53.243645-36.167734-22.75219-64.612577-50.542116-85.36625-83.35136s-31.131021-68.62496-31.131021-107.463524c-5.372358 2.686179-11.063987 5.02034-17.075911 7.03523-6.028297 2.01489-11.719926 3.006474-17.076934 3.006474-10.712993 0-20.770046-2.334161-30.139437-7.018857s-17.412578-11.048637-24.095791-19.0908c-6.699586-8.026814-11.719926-17.412578-15.062044-28.124548-3.357468-10.712993-5.02034-22.75219-5.02034-36.151361 0-12.05557 1.662873-23.439852 5.02034-34.152844 3.342118-10.712993 8.362458-20.082384 15.062044-28.109198 6.683213-8.026814 14.7264-14.389732 24.095791-19.075451s19.426445-7.03523 30.139437-7.03523c5.355985 0 11.384281 1.006933 18.083867 3.006474 6.683213 2.01489 12.71151 5.02034 18.067494 9.033747 5.355985 4.02978 10.04068 8.378831 14.07046 13.063527 4.013407 4.701069 8.026814 10.392698 12.05557 17.076934 10.712993-24.111141 24.431435-47.535643 41.171702-70.304206 16.724917-22.768563 35.815717-43.522236 57.241702-62.277392 21.425985-20.082384 45.185108-37.814234 71.312162-53.211922 26.110681-15.397688 53.228295-27.788903 81.352843-37.174668 16.053628-5.340635 30.443359-12.375865 43.171242-21.073968s23.775496-19.0908 33.145911-31.147394c9.369392-10.712993 17.076934-22.416546 23.105231-35.144428 6.011924-12.727882 9.705036-25.775037 11.048637-39.173185 1.342578 13.399171 5.02034 26.446325 11.048637 39.173185 6.011924 12.727882 13.718443 24.431435 23.104207 35.144428 9.369392 12.05557 20.402679 22.449291 33.129538 31.147394s27.117614 15.733333 43.186591 21.073968c28.124548 9.385764 54.906517 21.776979 80.345909 37.174668s48.879244 33.129538 70.304206 53.211922c22.768563 18.755156 42.515303 39.508829 59.255569 62.277392s30.475082 46.193065 41.188074 70.304206c2.669806-6.683213 6.347568-12.375865 11.032264-17.076934 4.684696-4.684696 9.705036-9.033747 15.077394-13.063527 5.340635-4.013407 11.032264-7.018857 17.060561-9.033747C924.995125 468.925972 931.358043 467.919039 938.057629 467.919039zM122.546034 584.41631c2.669806-6.683213 1.662873-13.382798-3.021823-20.082384-4.684696-6.699586-11.048637-11.384281-19.075451-14.07046-6.699586-2.669806-13.734816-2.669806-21.089317 0-7.370875 2.686179-11.719926 6.699586-13.047154 12.05557-1.342578 6.699586-0.016373 13.399171 4.013407 20.082384 4.013407 6.699586 10.04068 11.384281 18.083867 14.07046 8.026814 4.013407 15.381315 4.684696 22.080901 1.998517C117.190049 595.800591 121.203456 591.115895 122.546034 584.41631zM514.232854 855.576079c42.850947 0 83.015715-5.02034 120.510678-15.062044s70.304206-23.760147 98.429777-41.171702c28.109198-17.396205 50.205449-37.814234 66.275449-61.254086s24.111141-49.886177 24.111141-79.354326c0-1.342578 0-2.669806 0-4.013407s0-2.686179 0-4.02978l0-1.998517 0-4.013407c0-1.342578 0-2.669806 0-4.013407s-0.671289-2.01489-1.998517-2.01489l0-2.01489c0-5.340635-1.006933-11.367909-3.021823-18.067494s-3.677762-14.07046-5.02034-22.097274c-2.686179-6.699586-5.355985-13.399171-8.042163-20.098757-2.686179-6.683213-5.355985-12.040221-8.026814-16.068977-8.042163-12.040221-17.748223-22.75219-29.132504-32.122605s-23.760147-17.412578-37.142945-24.111141c-12.05557-6.683213-25.790386-12.040221-41.188074-16.068977-15.397688-4.013407-31.131021-6.028297-47.199998-6.028297-13.399171 0-25.775037 1.342578-37.158295 4.013407-11.384281 2.686179-22.432918 6.028297-33.145911 10.04068-10.712993 4.02978-21.089317 9.05012-31.131021 15.077394s-19.0908 12.391215-27.117614 19.075451c-8.042163-6.683213-17.076934-13.047154-27.117614-19.075451-10.04068-6.028297-20.418029-11.048637-31.131021-15.077394-10.712993-4.013407-22.097274-7.355525-34.152844-10.04068-12.05557-2.669806-24.095791-4.013407-36.151361-4.013407-16.068977 0-31.80231 2.01489-47.199998 6.028297-15.413038 4.02978-29.803793 9.385764-43.186591 16.068977-12.05557 6.699586-23.775496 14.741749-35.159778 24.111141s-21.089317 20.082384-29.116131 32.122605c-2.686179 4.02978-5.355985 9.385764-8.042163 16.068977-2.686179 6.699586-5.355985 13.399171-8.026814 20.098757-2.686179 8.026814-4.684696 15.397688-6.028297 22.097274s-2.01489 12.727882-2.01489 18.067494c-1.342578 0-1.998517 0.671289-1.998517 2.01489 0 2.686179 0 4.684696 0 6.028297l0 4.013407 0 1.998517c0 1.342578 0 2.686179 0 4.02978s0 2.669806 0 4.013407c0 29.468149 8.026814 55.914474 24.095791 79.354326s38.166251 43.85788 66.290799 61.254086c28.109198 17.412578 60.918441 31.131021 98.413404 41.171702S471.381907 855.576079 514.232854 855.576079zM335.458191 594.45699c0-6.683213-1.679245-11.704576-5.02034-15.062044-3.357468-3.342118-7.03523-5.02034-11.048637-5.02034-5.355985 0-9.369392 1.679245-12.05557 5.02034-2.686179 3.357468-4.013407 8.378831-4.013407 15.062044 0 5.355985 1.327228 9.705036 4.013407 13.063527s6.699586 5.02034 12.05557 5.02034c4.013407 0 7.691169-1.662873 11.048637-5.02034C333.778946 604.163049 335.458191 599.813998 335.458191 594.45699zM721.116715 594.45699c0-6.683213-1.679245-11.704576-5.02034-15.062044-3.357468-3.342118-7.03523-5.02034-11.048637-5.02034s-7.691169 1.679245-11.048637 5.02034c-3.357468 3.357468-5.02034 8.378831-5.02034 15.062044 0 5.355985 1.662873 9.705036 5.02034 13.063527s7.03523 5.02034 11.048637 5.02034 7.691169-1.662873 11.048637-5.02034C719.438493 604.163049 721.116715 599.813998 721.116715 594.45699zM940.072519 596.47188c8.026814-2.686179 14.038738-7.370875 18.067494-14.07046 4.013407-6.683213 5.355985-13.382798 4.013407-20.082384-2.686179-5.355985-7.370875-9.369392-14.054087-12.05557-6.699586-2.669806-13.399171-2.669806-20.082384 0-8.042163 2.686179-14.406105 7.370875-19.0908 14.07046s-5.691629 13.399171-3.006474 20.082384c1.342578 6.699586 5.355985 11.384281 12.05557 14.054087C924.659481 601.156576 932.030355 600.485287 940.072519 596.47188z" fill="#000000"></path></g></g></svg>