<?xml version="1.0" standalone="no"?><!DOCTYPE svg PUBLIC "-//W3C//DTD SVG 1.1//EN" "http://www.w3.org/Graphics/SVG/1.1/DTD/svg11.dtd"><svg width="200" height="200" viewBox="0 0 200 200" version="1.1" xmlns="http://www.w3.org/2000/svg" xmlns:xlink="http://www.w3.org/1999/xlink"><defs><style type="text/css"><![CDATA[
@font-face { font-family: ifont; src: url("//at.alicdn.com/t/font_1442373896_4754455.eot?#iefix") format("embedded-opentype"), url("//at.alicdn.com/t/font_1442373896_4754455.woff") format("woff"), url("//at.alicdn.com/t/font_1442373896_4754455.ttf") format("truetype"), url("//at.alicdn.com/t/font_1442373896_4754455.svg#ifont") format("svg"); }

]]></style></defs><g class="transform-group"><g transform="scale(0.1953125, 0.1953125)"><path d="M1.3 525.3c0 223 142.9 412.6 342.1 482.2 26.8 6.8 22.7-12.4 22.7-25.4l0-88.5C211.2 911.8 205 809.2 194.5 792.1c-21.1-35.9-70.7-45-55.9-62.1 35.3-18.2 71.2 4.6 112.9 66.1 30.2 44.6 88.8 37.1 118.7 29.6 6.5-26.8 20.5-50.7 39.6-69.4-160.3-28.5-227.3-126.5-227.3-243 0-56.4 18.6-108.4 55.2-150.3-23.2-69.2 2.2-128.2 5.6-137 66.3-6 135.1 47.4 140.5 51.6 37.7-10.1 80.7-15.6 128.8-15.6 48.4 0 91.6 5.6 129.5 15.8 12.9-9.8 76.8-55.6 138.4-50 3.3 8.8 28.1 66.5 6.3 134.7 37 42 55.8 94.3 55.8 151 0 116.7-67.3 214.8-228.2 243.1 26.9 26.5 43.5 63.3 43.5 104l0 128.4c0.9 10.2 0 20.5 17.2 20.5 202.1-68.1 347.6-259.1 347.6-484.1 0-282.1-228.7-510.7-510.7-510.7C229.9 14.6 1.3 243.2 1.3 525.3z" fill="#000000"></path></g></g></svg>